HIERARCHY
ROOT root
{
  OFFSET 134.317 80.632 18.4519
  CHANNELS 6 Xposition Yposition Zposition Zrotation Xrotation Yrotation
  JOINT pelvis
  {
    OFFSET 0 0 0
    CHANNELS 3 Zrotation Xrotation Yrotation
    JOINT lfemur
    {
      OFFSET 13.8754 0 0
      CHANNELS 3 Zrotation Xrotation Yrotation
      JOINT ltibia
      {
        OFFSET 0 -43.0143 0
        CHANNELS 3 Zrotation Xrotation Yrotation
        JOINT lfoot
        {
          OFFSET 0 -43.2745 0
          CHANNELS 3 Zrotation Xrotation Yrotation
          JOINT ltoe
          {
            OFFSET 0 0 14.8061
            CHANNELS 3 Zrotation Xrotation Yrotation
            JOINT ltoe_tip
            {
              OFFSET 0 0 1
              CHANNELS 3 Zrotation Xrotation Yrotation
              End Site
              {
                OFFSET 0 0 0
              }
            }
          }
        }
      }
    }
    JOINT rfemur
    {
      OFFSET -13.8754 0 0
      CHANNELS 3 Zrotation Xrotation Yrotation
      JOINT rtibia
      {
        OFFSET 0 -43.0143 0
        CHANNELS 3 Zrotation Xrotation Yrotation
        JOINT rfoot
        {
          OFFSET 0 -43.2745 0
          CHANNELS 3 Zrotation Xrotation Yrotation
          JOINT rtoe
          {
            OFFSET 0 0 14.8061
            CHANNELS 3 Zrotation Xrotation Yrotation
            JOINT rtoe_tip
            {
              OFFSET 0 0 1
              CHANNELS 3 Zrotation Xrotation Yrotation
              End Site
              {
                OFFSET 0 0 0
              }
            }
          }
        }
      }
    }
    JOINT thorax
    {
      OFFSET 0 5.54725 -1
      CHANNELS 3 Zrotation Xrotation Yrotation
      JOINT neck
      {
        OFFSET 0 46.8089 0
        CHANNELS 3 Zrotation Xrotation Yrotation
        JOINT head
        {
          OFFSET 0 18 0
          CHANNELS 3 Zrotation Xrotation Yrotation
          End Site
          {
            OFFSET 0 0 0
          }
        }
      }
      JOINT lclavicle
      {
        OFFSET 0 42.6801 0
        CHANNELS 3 Zrotation Xrotation Yrotation
        JOINT lhumerus
        {
          OFFSET 16.5077 0 0
          CHANNELS 3 Zrotation Xrotation Yrotation
          JOINT lradius
          {
            OFFSET 0 -27.9653 0
            CHANNELS 3 Zrotation Xrotation Yrotation
            JOINT lwrist
            {
              OFFSET 0 -27.1153 0
              CHANNELS 3 Zrotation Xrotation Yrotation
              JOINT lhand
              {
                OFFSET 0 -10 0
                CHANNELS 3 Zrotation Xrotation Yrotation
                End Site
                {
                  OFFSET 0 0 0
                }
              }
            }
          }
        }
      }
      JOINT rclavicle
      {
        OFFSET 0 42.6801 0
        CHANNELS 3 Zrotation Xrotation Yrotation
        JOINT rhumerus
        {
          OFFSET -16.5077 0 0
          CHANNELS 3 Zrotation Xrotation Yrotation
          JOINT rradius
          {
            OFFSET 0 -27.9653 0
            CHANNELS 3 Zrotation Xrotation Yrotation
            JOINT rwrist
            {
              OFFSET 0 -27.1153 0
              CHANNELS 3 Zrotation Xrotation Yrotation
              JOINT rhand
              {
                OFFSET 0 -10 0
                CHANNELS 3 Zrotation Xrotation Yrotation
                End Site
                {
                  OFFSET 0 0 0
                }
              }
            }
          }
        }
      }
    }
  }
}
MOTION
Frames:	8
Frame Time:	0.0333333
45.8363 81.3407 73.4567 0.914274 -5.80579 161.917 9.93923e-016 0 -3.18055e-015 34.9211 -37.6914 42.353 -5.13189e-015 47.0881 7.00693e-015 -17.9775 11.1035 -14.9537 2.23633e-016 1.59028e-015 -2.73329e-016 3.37934e-015 0 3.97569e-016 -14.9706 -5.70655 -25.2848 1.94598e-015 54.2319 5.44144e-015 -6.04168 -0.580841 -6.13671 -3.97252e-031 4.77083e-015 4.77083e-015 0 9.54166e-015 -0 -4.92696 14.7358 7.45375 5.51336 -6.18953 2.76203 -3.97569e-016 3.18055e-015 -0 4.93995 -6.36111e-015 0.587861 93.034 -56.878 30.499 -180 -79.211 133.581 16.2892 -7.17391 -6.4113e-015 6.21202e-015 8.44835e-016 -3.18055e-015 -5.69376 -3.18055e-015 -14.938 -109.044 -80.0904 -68.474 -7.14346e-008 -71.0119 0.627326 -17.4772 2.66751 3.184e-015 -6.36111e-015 3.18055e-015 4.77083e-015 
46.1616 81.8789 71.3202 2.83553 -4.77638 155.3 -3.97569e-016 1.59028e-015 -0 35.9834 -30.0024 42.174 -1.43203e-015 46.3905 -4.61124e-015 -11.495 1.83855 -11.3534 -4.09993e-016 -1.59028e-015 -0 -1.97542e-015 -3.18055e-015 -2.98177e-016 -17.7243 -7.83134 -21.2046 -4.33344e-015 58.2937 1.21034e-014 6.41 8.93221 5.37164 -6.36111e-015 1.59028e-015 1.59028e-015 3.18055e-015 -1.59028e-015 4.77083e-015 -3.44237 15.4741 6.64216 2.85879 -4.1774 10.418 7.95139e-016 0 -0 5.81281 -6.36111e-015 -0.312774 86.767 -42.886 27.327 180 -69.724 135.609 13.1113 -4.5308 -3.19053e-015 -4.53478e-015 4.27387e-015 -9.54166e-015 -6.31901 0 -14.9962 -46.983 -82.204 -4.617 9.85553e-008 -85.2333 -1.46381 -20.7941 -10.6765 8.09146e-015 1.59028e-015 -6.36111e-015 -6.36111e-015 
46.3354 82.1589 69.7434 4.66362 -4.83948 148.937 1.19271e-015 -7.95139e-016 3.18055e-015 40.0466 -25.6355 44.7265 -1.48106e-015 48.677 -1.2042e-015 -11.8688 2.37796 -11.6213 9.93923e-017 0 -1.98785e-016 -1.54058e-015 1.59028e-015 -5.96354e-016 -19.0424 -12.8966 -14.2942 1.96e-014 61.3618 -1.32723e-014 21.0505 24.742 11.0369 6.36111e-015 6.36111e-015 -0 6.36111e-015 1.59028e-015 -3.18055e-015 -2.34488 16.5641 4.27437 1.65369 -4.52207 17.3961 8.82781e-032 -3.18055e-015 1.59028e-015 7.03941 3.18055e-015 -2.88693 83.928 -23.296 27.228 -180 -58.219 134.286 12.1174 -1.84913 -6.36442e-015 -1.19271e-015 5.56597e-015 3.18055e-015 -7.0853 3.18055e-015 -8.89963 -27.072 -60.7243 13.006 -180 -65.062 170.53 -13.4206 -5.81803 -7.1933e-015 -3.97569e-015 -6.36111e-015 -7.15625e-015 
46.5439 82.017 68.2058 5.84601 -5.57726 144.245 -3.97569e-016 1.59028e-015 -3.18055e-015 43.3332 -21.5423 48.6758 3.70235e-015 50.6305 -3.76059e-015 -12.4124 0.799674 -12.5371 3.47873e-016 0 5.96354e-016 1.06847e-015 3.18055e-015 5.96354e-016 -20.9991 -17.769 -11.7598 3.37934e-015 62.0225 -0 21.1932 22.517 12.3043 3.18055e-015 -9.54166e-015 -0 6.36111e-015 1.59028e-015 -3.18055e-015 -1.61316 17.4821 3.134 2.24259 -6.23934 19.6511 1.19271e-015 0 -4.77083e-015 7.56277 -3.18055e-015 -3.16852 81.342 -10.785 29.244 -180 -50.825 131.959 12.5197 -0.814857 3.18088e-015 3.97569e-016 -3.97569e-016 -0 -2.04058 0 -0.466857 -33.372 -27.6929 5.599 -180 -40.896 164.222 9.25525 -16.1733 2.48371e-015 -3.97569e-015 0 -2.38542e-015 
46.8934 81.4307 66.6609 6.62517 -6.9363 144.073 1.59028e-015 0 3.18055e-015 46.1295 -21.7615 49.7894 -2.23873e-015 53.7355 6.72122e-015 -12.7906 -1.29804 -13.4129 1.09332e-015 0 -2.98177e-016 3.23025e-016 -1.59028e-015 -9.93923e-016 -24.2864 -19.3899 -17.3248 1.00728e-014 58.6114 -1.83198e-014 1.14274 15.2869 0.801182 3.18055e-015 -2.38542e-015 -6.36111e-015 -3.18055e-015 -3.18055e-015 -3.97569e-015 1.33184 17.7405 -0.772939 1.5778 -8.09147 21.021 7.95139e-016 -1.59028e-015 -0 6.65639 0 -1.02654 77.573 -4.482 33.893 180 -47.988 132.083 13.3457 -2.18649 -6.36574e-015 2.5842e-015 1.98785e-015 -0 10.0564 0 3.96721 -42.993 4.11663 -2.19 -180 -29.078 160.407 20.2556 -22.8992 -7.76848e-015 3.97569e-015 0 -5.56597e-015 
47.7079 80.6475 65.6651 6.59124 -7.94622 146.572 -7.95139e-016 0 6.36111e-015 47.558 -24.243 49.4376 -7.95139e-016 55.989 -0 -13.0546 -2.43723 -13.9592 -2.36057e-016 1.59028e-015 -6.95746e-016 -2.11209e-016 1.59028e-015 -3.97569e-016 -26.7372 -19.1554 -21.0388 -3.21931e-014 53.6885 4.83387e-014 -8.51038 12.9063 -6.46788 -6.36111e-015 -6.36111e-015 -1.59028e-015 3.18055e-015 -7.95139e-016 -3.18055e-015 4.18566 17.373 -5.06948 0.0631883 -9.54377 22.2604 2.64834e-031 -1.59028e-015 9.54166e-015 5.29252 -3.18055e-015 0.459794 74.79 0.534 41.041 -180 -47.837 138.006 14.6996 -2.23066 3.18297e-015 -7.95139e-016 5.96354e-016 -3.18055e-015 20.0034 0 -1.57148 -51.396 22.3468 0.302 180 -31.152 160.719 14.7534 -27.7796 1.0251e-014 -1.59028e-015 3.18055e-015 5.56597e-015 
49.1247 79.8189 65.2526 5.71023 -7.30085 148.431 -1.59028e-015 -2.38542e-015 -0 47.3117 -25.0086 49.0877 -8.88965e-015 56.7025 1.1587e-014 -14.0315 -2.11773 -14.9906 -6.08778e-016 0 4.96962e-017 1.92573e-016 0 2.48481e-017 -28.7199 -19.2879 -20.3188 9.93923e-015 50.8941 -0 -10.1732 13.1197 -7.72393 6.36111e-015 -1.59028e-015 -4.77083e-015 -6.36111e-015 -7.95139e-016 -3.97569e-015 4.20198 17.1138 -7.95618 0.728182 -9.23179 24.3405 -3.97569e-016 0 -0 5.42578 7.95139e-015 1.58411 71.483 4.439 47.056 180 -49.946 142.713 14.9401 -0.266155 6.36118e-015 -4.77083e-015 -3.18055e-015 -3.18055e-015 22.2791 1.19271e-015 -5.07467 -49.589 34.927 5.876 180 -37.767 162.655 15.0101 -29.8126 -0 6.36111e-015 -4.77083e-015 -2.38542e-015 
51.0937 78.9788 65.5535 5.31446 -6.6646 149.288 1.59028e-015 1.59028e-015 -3.18055e-015 48.3328 -24.4048 49.8216 -1.68244e-015 56.814 5.81073e-015 -15.9189 -0.980645 -16.8486 -1.47846e-015 -1.59028e-015 -3.97569e-016 -1.46604e-015 1.59028e-015 1.98785e-016 -27.9603 -21.0604 -15.1301 3.8796e-015 52.3426 5.20601e-015 -3.05833 12.5923 -2.3214 -6.36111e-015 -3.18055e-015 1.59028e-015 -9.54166e-015 -4.77083e-015 1.59028e-015 3.64031 17.3911 -8.04688 2.30458 -9.43863 25.3516 0 0 -0 5.90594 0 2.39935 69.211 6.557 51.223 180 -53.659 145.035 14.4827 -0.659591 9.5423e-015 1.59028e-015 -7.95139e-015 6.36111e-015 22.5199 -2.38542e-015 -6.5541 -44.298 42.6892 10.922 180 -41.789 164.178 18.8958 -31.9549 -0 -0 -3.18055e-015 -0 
